<?xml version="1.0"?>
<!-- Created with xTool Creative Space (https://www.xtool.com/pages/software) -->
<svg xmlns="http://www.w3.org/2000/svg" xmlns:xlink="http://www.w3.org/1999/xlink" xmlns:xcs="https://www.xtool.com/pages/software" version="1.1" preserveAspectRatio="xMinYMin meet" width="290.00000000000006mm" height="290.00000000000006mm" viewBox="5.261489443872254 5.353809300382559 290.00000000000006 290.00000000000006" xcs:version="2.4.27"><style>svg * { vector-effect: non-scaling-stroke; stroke-width: 1px; }</style>
<circle transform="matrix(0.0066679,0,0,0.0066679,5.261489,5.353809) scale(100)" stroke="#00befe" fill="none" cx="217.45982055527733" cy="217.45982055527733" r="217.45982055527733"></circle><path transform="matrix(0.334579,0,0,0.334579,-16.309539,-16.539673)" stroke="#00c715" fill="none" d="M 210 558.36 C 203.39941 558.07943 196.75505 566.35544 205.09813 569.474 C 210.61539 569.18168 221.95978 559.96811 216.12773 556.3993 C 214.04985 556.93721 212.03636 557.68859 210 558.36 z " fill-rule="nonzero"></path><path transform="matrix(0.334579,0,0,0.334579,-16.309539,-16.539673)" stroke="#00c715" fill="none" d="M 207.745 542.155 C 206.94858 546.65889 197.92556 560.68955 208.805 555.628 C 217.0217 552.61322 227.34552 549.97336 230.51928 540.71108 C 230.19301 533.83753 220.08888 536.31075 214.9059 535.1605 C 211.29483 534.05319 209.17438 535.21644 208.81526 539.06253 L 207.745 542.155 z " fill-rule="nonzero"></path><path transform="matrix(0.334579,0,0,0.334579,-16.309539,-16.539673)" stroke="#00c715" fill="none" d="M 299.5 458.328 C 292.93916 457.99973 298.01791 473.9729 293.08702 468.07498 C 293.08648 456.95081 279.77028 468.89062 274.29655 470.56643 C 259.02639 479.36602 244.95063 490.09244 230.26867 499.82642 C 223.24593 503.03077 221.50707 510.0309 225.24004 515.85178 C 217.6201 508.69259 214.36632 524.3731 213.46903 529.68938 C 220.45763 532.22162 229.43527 534.06113 236.66995 534.07879 C 242.10181 526.44962 246.93427 518.27609 253.02291 511.05729 C 260.73713 501.94327 267.11072 491.08982 277.28096 484.46444 C 289.34249 480.34759 302.40297 477.88777 315.17075 478.96187 C 319.73876 483.74454 326.0848 484.8846 328.60125 477.2285 C 335.23134 468.445 322.75794 463.59533 316.70115 460.00106 C 311.34908 457.43481 304.97768 453.79381 299.5 458.328 z " fill-rule="nonzero"></path><path transform="matrix(0.334579,0,0,0.334579,-16.309539,-16.539673)" stroke="#00c715" fill="none" d="M 287.017 485.044 C 277.8639 485.13634 274.3268 494.85241 276.44709 502.42106 C 272.14119 492.12104 264.79067 505.99538 260.95594 509.97809 C 245.08713 530.69015 229.06368 551.33914 214.377 572.909 C 209.90025 580.06842 220.92948 586.00031 222.28056 589.86347 C 216.53561 587.48532 210.92736 588.27269 213.42568 595.93596 C 217.17545 603.99576 229.51814 595.25633 235.22759 592.42594 C 238.15959 585.20787 243.15418 573.78902 252.75992 579.60795 C 265.73759 576.35943 248.59836 562.15782 257.28562 556.29213 C 262.82311 563.33483 265.49595 547.42734 270.04036 544.6845 C 275.71806 537.39737 280.92471 529.24468 288.63 523.951 C 293.62609 522.64333 298.83719 523.08402 303.948 523 C 309.13332 530.41681 315.31808 537.85128 315.55083 547.35086 C 318.08895 559.8689 328.15539 568.78443 334.99139 579.07018 C 341.24328 587.47709 347.27273 598.25348 358.802 599.63784 C 368.56238 601.4056 373.48718 590.87556 380.34337 586.05625 C 382.76462 583.23425 396.68892 577.87037 387.54699 584.26849 C 378.52992 586.73813 379.26157 600.73641 389.90014 595.91002 C 396.2513 590.55934 399.32029 582.08822 404.11028 575.31609 C 418.50006 551.88906 432.92901 528.47084 447.739 505.314 C 453.90152 494.68081 436.39746 498.43621 430.57848 498.12194 C 406.68782 498.77966 382.23759 499.60756 359.50331 507.5601 C 350.72693 514.12452 358.27989 523.24381 362.22954 530.10501 C 367.45492 539.03713 372.43012 549.82687 368.70689 560.22556 C 363.96816 565.35782 361.72069 555.76317 365.95775 553.09812 C 366.42504 542.44521 360.82478 532.03076 353.04187 524.95708 C 343.55692 515.96467 332.97679 507.83274 326.24168 496.37371 C 322.18786 488.53973 314.61294 482.57168 305.36957 484.1062 C 299.24474 484.14388 293.10407 484.33045 287.017 485.044 z " fill-rule="nonzero"></path><path transform="matrix(0.334579,0,0,0.334579,-16.309539,-16.539673)" stroke="#00c715" fill="none" d="M 229.827 598.382 C 224.37621 600.7087 218.68907 602.71351 213.819 606.165 C 214.71511 614.21108 213.87027 622.72814 216.88841 630.31625 C 223.81224 629.4067 228.92097 619.79187 234.69914 615.10645 C 238.54281 609.51023 249.56831 603.0588 244.66052 595.62576 C 239.83444 591.90165 234.70632 597.27176 229.827 598.382 z " fill-rule="nonzero"></path><path transform="matrix(0.334579,0,0,0.334579,-16.309539,-16.539673)" stroke="#00c715" fill="none" d="M 251 602.82 C 241.12087 611.79359 232.27318 621.92687 223.24839 631.7689 C 216.39063 637.08216 222.36455 645.27333 227.86337 637.2585 C 237.69436 627.25474 247.01424 616.63916 255.5761 605.54912 C 256.33661 603.3662 252.81665 600.9809 251 602.82 z " fill-rule="nonzero"></path><path transform="matrix(0.334579,0,0,0.334579,-16.309539,-16.539673)" stroke="#00c715" fill="none" d="M 298.817 355.75 C 289.97684 362.36878 294.83305 373.48617 294.105 382.592 C 290.544 390.51866 304.36152 402.5015 307.325 390.973 C 311.06025 382.42889 320.9881 378.40926 325.01574 370.35247 C 322.15424 362.45002 312.9135 358.80603 306.38267 354.16844 C 303.68961 351.90196 300.86031 353.58552 298.817 355.75 z M 332.455 365.455 C 323.70195 373.60801 341.10747 383.97856 343.91857 372.00997 C 345.60048 366.00017 336.71282 359.71586 332.455 365.455 z " fill-rule="nonzero"></path><path transform="matrix(0.334579,0,0,0.334579,-16.309539,-16.539673)" stroke="#00c715" fill="none" d="M 306.414 347.095 C 304.72609 354.20626 319.26359 356.90156 323.70306 362.54182 C 326.33719 367.62165 331.91928 358.13846 327.73872 356.87799 C 321.35298 353.18106 314.88367 346.39457 307.95162 345.6155 L 307.20358 346.28166 L 306.414 347.095 z " fill-rule="nonzero"></path><path transform="matrix(0.334579,0,0,0.334579,-16.309539,-16.539673)" stroke="#00c715" fill="none" d="M 342.258 302.336 C 336.6611 305.29135 330.82308 320.41764 341.37975 317.47763 C 344.40614 308.81589 354.7389 306.37552 360.48148 313.71186 C 356.01464 321.5978 346.31416 328.63651 337.4653 322.55077 C 334.57215 322.10442 330.90416 317.14298 328.69321 320.33662 C 322.91674 326.80936 316.44965 332.75639 311.58038 339.9605 C 312.82258 347.14951 324.63951 349.32563 329.99054 354.79623 C 338.30563 363.66678 344.84128 351.73414 350.51786 346.11791 C 357.37973 337.93877 366.61406 331.53127 371.77408 322.06998 C 372.82666 312.33841 361.00808 308.00363 354.94864 302.3373 C 350.13354 298.28658 346.51018 296.27722 342.258 302.336 z M 378.073 313.635 C 368.96959 323.24114 388.2738 335.66428 390.93809 321.3376 C 393.18053 313.94484 383.30722 307.01573 378.073 313.635 z M 374.634 339.155 C 366.07683 348.43553 357.34998 357.6952 350 367.966 C 353.07364 374.93061 361.45339 377.13122 365.17512 369.8055 C 373.65493 368.41693 385.11458 371.92261 390.64331 363.3482 C 394.08407 354.76071 393.03915 344.60825 387.02206 337.40059 C 383.4462 329.85449 378.43157 334.90514 374.634 339.155 z " fill-rule="nonzero"></path><path transform="matrix(0.334579,0,0,0.334579,-16.309539,-16.539673)" stroke="#00c715" fill="none" d="M 326.085 386.641 C 318.64486 390.17801 324.96546 399.568 330.39726 392.96222 C 335.46214 387.32619 333.95066 376.05849 326.085 386.641 z " fill-rule="nonzero"></path><path transform="matrix(0.334579,0,0,0.334579,-16.309539,-16.539673)" stroke="#00c715" fill="none" d="M 324.229 377.171 C 319.05351 383.03125 328.8239 387.28088 328.238 379.041 C 328.93491 376.54581 325.69871 375.08139 324.229 377.171 z " fill-rule="nonzero"></path><path transform="matrix(0.334579,0,0,0.334579,-16.309539,-16.539673)" stroke="#00c715" fill="none" d="M 331.385 481.227 C 320.81144 484.02795 329.716 502.20264 336.19386 492.97911 C 339.45693 488.78519 339.96651 473.82281 331.385 481.227 z " fill-rule="nonzero"></path><path transform="matrix(0.334579,0,0,0.334579,-16.309539,-16.539673)" stroke="#00c715" fill="none" d="M 337.75 381.08 C 336.56792 389.49917 330.94799 396.06082 325 402.34 C 331.97384 404.09166 341.80348 402.07387 345.045 394.62 C 350.81108 389.08474 346.10914 376.9979 337.75 381.08 z " fill-rule="nonzero"></path><path transform="matrix(0.334579,0,0,0.334579,-16.309539,-16.539673)" stroke="#00c715" fill="none" d=" M337.455 418.455 C 331.382 424.527,338.178 433.747,346.661 430.947 C 350.409 429.710,353.370 425.212,352.344 422.313 C 350.046 415.822,342.137 413.772,337.455 418.455 " fill-rule="nonzero"></path><path transform="matrix(0.334579,0,0,0.334579,-16.309539,-16.539673)" stroke="#00c715" fill="none" d="M 372.25 432.978 C 368.92576 436.2923 365.1641 445.80772 373.74885 442.21983 C 378.57096 440.42747 381.99619 441.55167 375.57992 443.65777 C 370.8523 445.40153 358.41425 452.16611 364.54275 441.7765 C 362.76631 433.4533 353.0458 446.31564 350.93607 450.11444 C 346.01481 457.32121 340.34926 464.11832 336.20975 471.7965 C 339.66974 479.85273 351.9926 471.94673 358.93079 471.90396 C 392.66228 463.61216 427.6276 467.98573 461.89675 464.97342 C 468.55852 459.08806 471.16227 449.16447 477.75197 442.80525 C 481.71234 440.72215 489.57429 434.04922 480.14664 433.60794 C 462.91953 433.85077 445.68589 435.88679 428.43474 434.59237 C 411.88464 434.19444 395.83903 429.87201 379.57246 427.42013 C 375.68841 426.70907 374.00927 430.35602 372.25 432.978 z " fill-rule="nonzero"></path><path transform="matrix(0.334579,0,0,0.334579,-16.309539,-16.539673)" stroke="#00c715" fill="none" d="M 419 486.681 C 392.82883 487.65846 366.34163 490.28193 341.36598 498.51442 C 332.19839 501.83256 341.48513 510.33101 347.56611 506.15759 C 368.56565 500.55845 389.9935 496.36302 411.7535 495.3961 C 426.02736 494.13604 440.50585 495.04101 454.66773 492.88058 C 464.50907 485.65187 445.95178 485.84713 441.36302 486.18969 C 433.90647 486.215 426.45234 486.44843 419 486.681 z " fill-rule="nonzero"></path><path transform="matrix(0.334579,0,0,0.334579,-16.309539,-16.539673)" stroke="#00c715" fill="none" d="M 395.5 468.7 C 379.3476 470.47506 363.08754 472.86023 347.5413 477.70083 C 342.45958 480.65972 342.02202 489.8387 341.71075 494.86363 C 349.48627 495.62737 356.92881 491.37623 364.63177 490.31447 C 395.0596 483.26453 426.48235 485.32999 457.41047 483.51177 C 463.85401 481.62482 463.25914 464.68582 453.2712 468.58172 C 434.02015 468.21838 414.74657 468.08961 395.5 468.7 z " fill-rule="nonzero"></path><path transform="matrix(0.334579,0,0,0.334579,-16.309539,-16.539673)" stroke="#00c715" fill="none" d="M 376.5 623.535 C 362.93655 628.47696 347.59513 635.26263 341.72958 649.42925 C 341.67179 661.52078 353.80989 647.17052 360.191 648.332 C 372.9553 646.62026 383.46847 637.50988 390.3134 627.10716 C 391.43281 618.34878 381.02778 621.6722 376.5 623.535 z " fill-rule="nonzero"></path><path transform="matrix(0.334579,0,0,0.334579,-16.309539,-16.539673)" stroke="#00c715" fill="none" d="M 344.589 317.077 C 335.15743 326.5222 356.54673 322.8812 350.8 315.2 C 348.70957 312.55749 345.97993 315.30535 344.589 317.077 z " fill-rule="nonzero"></path><path transform="matrix(0.334579,0,0,0.334579,-16.309539,-16.539673)" stroke="#00c715" fill="none" d="M 363.806 335.778 C 356.88792 343.45023 348.87813 350.3189 343 358.83 C 347.53575 369.73653 355.23856 355.56813 359.34862 351.41877 C 363.50903 344.00211 373.72743 338.67942 374.50103 330.31509 C 370.93894 325.73571 366.5102 333.9162 363.806 335.778 z " fill-rule="nonzero"></path><path transform="matrix(0.334579,0,0,0.334579,-16.309539,-16.539673)" stroke="#00c715" fill="none" d="M 361 278.369 C 354.52591 279.19665 338.66912 287.55516 351.89825 290.69938 C 357.82058 287.47747 373.08044 285.30159 370.8 277.2 C 368.07001 274.59285 363.96528 277.77898 361 278.369 z " fill-rule="nonzero"></path><path transform="matrix(0.334579,0,0,0.334579,-16.309539,-16.539673)" stroke="#00c715" fill="none" d="M 346.667 374.667 C 344.69293 382.14592 355.33919 386.60865 357.26612 393.694 C 367.13542 396.28017 358.72694 376.98179 352.5781 375.32434 C 350.84357 374.51763 348.44987 373.23313 346.667 374.667 z " fill-rule="nonzero"></path><path transform="matrix(0.334579,0,0,0.334579,-16.309539,-16.539673)" stroke="#00c715" fill="none" d="M 346.328 510.589 C 345.58551 518.01851 357.70963 514.90389 351.08725 509.46081 C 349.55078 509.04873 347.04273 508.66213 346.328 510.589 z " fill-rule="nonzero"></path><path transform="matrix(0.334579,0,0,0.334579,-16.309539,-16.539673)" stroke="#00c715" fill="none" d="M 354.556 258.91 C 356.56333 267.68733 367.99331 271.66283 374.49537 277.40137 C 377.53221 286.56918 357.60223 287.03411 370.22835 294.65506 C 375.06763 299.63564 380.03434 304.49015 384.941 309.404 C 390.44083 304.70967 393.98113 297.21997 393.77178 290.03152 C 387.4335 284.55926 387.67368 275.73958 381.55405 270.23704 C 374.16969 265.01211 365.44922 261.81568 357.21962 258.17463 L 355.54567 258.15161 L 354.556 258.91 z M 349.25 266.727 C 344.47401 274.2235 363.80095 280.8855 362.39337 270.84258 C 358.68899 268.31532 353.64286 267.1411 349.25 266.727 z " fill-rule="nonzero"></path><path transform="matrix(0.334579,0,0,0.334579,-16.309539,-16.539673)" stroke="#00c715" fill="none" d="M 356.468 398.765 C 351.85176 404.98804 344.80856 416.99177 357.66837 417.82526 C 391.22161 428.53395 426.69822 433.65839 461.89417 430.75252 C 492.23203 428.44419 522.49641 424.62492 552.4239 419.15739 C 559.69061 413.91352 549.66117 410.10333 544.48738 412.65543 C 507.89095 415.50557 471.11616 421.54761 434.36952 417.73909 C 410.93066 414.31143 387.53344 409.45819 365.20296 401.45128 C 362.3577 400.97995 359.2384 396.96243 356.468 398.765 z " fill-rule="nonzero"></path><path transform="matrix(0.334579,0,0,0.334579,-16.309539,-16.539673)" stroke="#00c715" fill="none" d="M 354.75 292.08 C 351.92062 298.15134 364.70073 303.20173 368.96242 307.98434 C 373.43444 314.95803 381.71464 307.04058 374.345 302.77 C 369.03317 298.69196 362.44911 288.44151 354.75 292.08 z " fill-rule="nonzero"></path><path transform="matrix(0.334579,0,0,0.334579,-16.309539,-16.539673)" stroke="#00c715" fill="none" d="M 361.274 196.664 C 351.40675 202.5944 352.51706 219.57759 363.4163 223.81692 C 369.70437 226.00584 369.02698 214.86828 369.047 211.114 C 367.52361 205.62232 373.35851 192.58982 361.274 196.664 z " fill-rule="nonzero"></path><path transform="matrix(0.334579,0,0,0.334579,-16.309539,-16.539673)" stroke="#00c715" fill="none" d="M 389.339 634.634 C 384.80936 642.00146 376.9079 645.68508 369.13222 648.57622 C 362.97689 653.65311 378.79418 653.08421 382.14299 654.11729 C 389.36463 654.04894 400.11467 658.02007 404.76675 651.253 C 398.39354 646.25979 398.59738 638.14078 396.31798 631.51127 C 393.34383 630.19271 390.89421 632.29062 389.339 634.634 z " fill-rule="nonzero"></path><path transform="matrix(0.334579,0,0,0.334579,-16.309539,-16.539673)" stroke="#00c715" fill="none" d="M 375.25 204.662 C 369.18002 215.03004 382.67687 215.47144 389.61862 215.74775 C 398.15421 216.18126 406.9065 218.05083 415.35952 216.22665 C 423.04036 208.42537 406.40949 201.73333 399.45356 204.06515 C 391.38806 204.14014 383.28917 203.93789 375.25 204.662 z " fill-rule="nonzero"></path><path transform="matrix(0.334579,0,0,0.334579,-16.309539,-16.539673)" stroke="#00c715" fill="none" d="M 393.169 277.071 C 390.26051 287.56191 405.0595 285.33703 411.39637 287.78973 C 439.45547 294.75719 465.60442 313.49364 476.84503 340.74581 C 485.1021 360.42682 490.61262 381.66865 490.65867 403.09327 C 484.8094 414.78081 503.80534 420.24874 505.33411 407.78297 C 508.97982 398.07493 496.67797 391.22365 497.525 382.972 C 501.0503 375.64943 496.51778 366.65863 492.61266 360.2384 C 489.77771 357.04649 498.73869 357.9029 493.51898 352.89414 C 490.65698 343.56098 481.30234 337.34993 479.82253 327.99292 C 476.1287 317.87391 466.24059 311.80457 458.87566 304.49589 C 451.64777 298.43139 444.41571 291.45452 434.95039 289.22047 C 429.94151 281.55848 419.1674 284.13202 412.70664 277.97841 C 407.05595 276.60929 397.50347 272.45943 393.169 277.071 z M 409.359 291.67 C 406.2258 301.25436 401.30753 310.09848 395.6074 318.34231 C 396.15931 327.8776 406.10642 335.47418 406.45408 345.81287 C 406.27818 351.80679 411.88442 360.18966 401.77667 359.56711 C 391.50842 361.65769 392.52228 370.65192 393.90977 378.39931 C 394.67098 387.73818 386.74414 397.43731 389.21838 405.87838 C 402.80604 411.04925 417.57454 412.34245 431.88765 414.44228 C 449.26242 416.17298 466.87282 416.56502 484.26238 414.88925 C 489.94566 408.81279 484.7574 396.70126 485.36769 388.32115 C 483.48836 365.67725 477.28524 342.402 461.82367 325.09317 C 448.51594 309.58963 432.05084 295.28699 411.77731 290.34268 C 410.83078 290.23172 409.63062 290.64053 409.359 291.67 z " fill-rule="nonzero"></path><path transform="matrix(0.334579,0,0,0.334579,-16.309539,-16.539673)" stroke="#00c715" fill="none" d="M 391.005 330.493 C 390.91701 338.51534 397.5923 346.60872 396.37125 355.50463 C 402.13382 362.94444 404.44029 348.02514 402.42933 343.57114 C 402.17735 338.42562 398.19142 324.92593 391.005 330.493 z " fill-rule="nonzero"></path><path transform="matrix(0.334579,0,0,0.334579,-16.309539,-16.539673)" stroke="#00c715" fill="none" d="M 398.621 289.75 C 400.30334 297.7242 387.92984 304.89176 393.25 311.388 C 401.84351 312.25909 405.12517 298.52394 404.52104 291.50442 C 404.26853 288.7747 399.78272 286.26458 398.621 289.75 z " fill-rule="nonzero"></path><path transform="matrix(0.334579,0,0,0.334579,-16.309539,-16.539673)" stroke="#00c715" fill="none" d="M 397.506 593.393 C 388.66098 602.06194 407.12939 609.52778 410.52406 599.36037 C 414.72761 595.38114 420.07032 587.95431 410.19107 589.1213 C 407.06978 589.47487 402.7814 587.48049 400.35577 589.3194 L 397.506 593.393 z " fill-rule="nonzero"></path><path transform="matrix(0.334579,0,0,0.334579,-16.309539,-16.539673)" stroke="#00c715" fill="none" d="M 396.923 614.923 C 387.08583 622.89097 405.09845 636.74761 407.85477 622.25214 C 409.57678 616.26653 401.68552 607.92696 396.923 614.923 z " fill-rule="nonzero"></path><path transform="matrix(0.334579,0,0,0.334579,-16.309539,-16.539673)" stroke="#00c715" fill="none" d="M 456.804 633.75 C 455.95368 640.36927 462.36032 655.74721 450.35332 648.5368 C 435.3632 643.78907 420.79762 637.72266 405.7766 633.12571 C 398.08167 636.14526 407.4021 645.91191 413.57037 645.40781 C 427.44589 649.95081 441.49389 653.96613 455.307 658.697 C 449.47079 664.421 441.16421 667.21589 435.16055 672.68282 C 442.64649 675.4534 451.71755 671.0472 459.82248 671.43922 C 466.9545 676.25713 470.04349 686.34071 476.2872 692.69459 C 482.23199 696.55062 476.6448 682.26776 476.53526 679.34753 C 475.18221 672.42822 469.75974 663.09406 480.45256 661.69828 C 484.23848 658.83801 498.1118 655.50474 494.26187 651.01763 C 486.02048 650.03311 476.84126 652.62838 469.17456 649.66359 C 464.90205 646.94381 461.69909 629.41832 456.804 633.75 z " fill-rule="nonzero"></path><path transform="matrix(0.334579,0,0,0.334579,-16.309539,-16.539673)" stroke="#00c715" fill="none" d="M 406.667 646.667 C 403.42372 653.47356 425.0861 656.74424 415.49322 648.42247 C 412.82813 648.10296 409.08134 645.21201 406.667 646.667 z " fill-rule="nonzero"></path><path transform="matrix(0.334579,0,0,0.334579,-16.309539,-16.539673)" stroke="#00c715" fill="none" d="M 494.226 436.04 C 483.53621 442.28468 475.68035 452.73206 469.88 463.5 C 464.52062 476.1789 463.25629 491.9623 470.34133 504.22421 C 473.65459 511.02533 480.39896 508.10777 480.90039 501.32264 C 489.67626 486.45442 499.84829 472.29373 512.49613 460.46708 C 516.3469 453.53756 512.02104 444.91308 507.61415 439.23488 C 504.44061 435.29383 498.8464 433.95063 494.226 436.04 z M 457.859 497.713 C 441.97983 522.00947 425.81693 546.14824 410.19923 570.62167 C 403.23227 577.14447 406.17093 588.99871 416.88539 586.61402 C 425.36186 584.71418 428.03721 574.86258 432.998 568.764 C 439.33645 558.58248 446.59927 548.9886 453.12325 538.96238 C 450.95982 528.20257 460.32294 522.51633 468.86029 518.4821 C 477.93636 513.58867 464.45156 504.88472 463.00644 498.31558 C 461.91678 496.2248 459.26992 495.41829 457.859 497.713 z " fill-rule="nonzero"></path><path transform="matrix(0.334579,0,0,0.334579,-16.309539,-16.539673)" stroke="#00c715" fill="none" d="M 425.357 186.513 C 428.04517 193.72209 439.78351 202.32254 426.73227 206.46567 C 422.46488 212.77412 418.91394 220.71382 409.51294 219.41631 C 406.6518 227.4819 416.45529 235.83304 424.83146 234.74741 C 431.37095 237.35454 417.09858 236.6219 414.716 236.618 C 419.11506 245.63583 406.47008 252.6141 409.83691 261.19292 C 417.85098 262.97168 426.54802 261.42127 434.75705 260.8486 C 441.77325 259.69471 451.85348 255.87699 453.63633 248.82211 C 445.38503 235.49559 438.12797 220.37285 439.31664 204.27208 C 441.66718 197.407 444.93861 184.59036 433.36472 185.05191 C 430.84886 185.26507 427.14753 184.24393 425.357 186.513 z " fill-rule="nonzero"></path><path transform="matrix(0.334579,0,0,0.334579,-16.309539,-16.539673)" stroke="#00c715" fill="none" d="M 434.824 570.75 C 426.13266 583.34849 416.64578 595.44814 408.74341 608.56463 C 409.69854 617.16445 418.23365 604.20372 419.94942 600.85884 C 430.66308 584.58093 441.19825 568.15377 452.50832 552.29951 C 453.4821 543.95259 444.92671 557.0446 443.02467 559.49413 C 440.24605 563.21298 437.51805 566.96951 434.824 570.75 z " fill-rule="nonzero"></path><path transform="matrix(0.334579,0,0,0.334579,-16.309539,-16.539673)" stroke="#00c715" fill="none" d="M 412.898 193.284 C 403.83954 198.65199 416.76362 204.28186 418.97914 209.62345 C 425.45552 205.41966 433.2956 196.77454 422.64345 192.09052 C 419.52823 190.03454 415.6788 191.29706 412.898 193.284 z " fill-rule="nonzero"></path><path transform="matrix(0.334579,0,0,0.334579,-16.309539,-16.539673)" stroke="#00c715" fill="none" d="M 456.095 554.808 C 441.31171 573.69369 428.57264 594.10007 414.16216 613.25544 C 413.74945 617.75371 407.7293 631.70316 415.907 629.548 C 422.06475 623.98708 425.30011 615.80818 431.56297 610.16265 C 442.46933 597.39383 455.85013 586.63408 465.03722 572.47497 C 468.68311 565.6077 477.49555 552.96152 464.1088 551.15916 C 460.87649 550.30193 458.11652 552.60794 456.095 554.808 z " fill-rule="nonzero"></path><path transform="matrix(0.334579,0,0,0.334579,-16.309539,-16.539673)" stroke="#00c715" fill="none" d="M 476.293 559.25 C 470.82025 568.89818 467.04061 579.77996 458.54636 587.36833 C 446.27816 600.59719 431.94399 612.27831 422.30223 627.69149 C 417.15936 635.86578 427.9574 637.86713 431.22272 630.90392 C 440.82247 620.75468 451.76712 612.0847 462.65312 603.39628 C 473.44167 593.25565 483.72829 579.86294 483.65402 564.35984 C 483.8878 560.62955 479.95109 555.62467 476.293 559.25 z " fill-rule="nonzero"></path><path transform="matrix(0.334579,0,0,0.334579,-16.309539,-16.539673)" stroke="#00c715" fill="none" d="M 454.719 170.25 C 443.72479 184.63815 443.8167 203.80497 446.85889 220.8247 C 449.17227 231.78475 451.87603 244.64258 461.92141 251.10665 C 470.28539 254.3675 471.61939 244.471 464.94776 241.20939 C 458.58622 233.16977 461.32731 222.1724 460.78222 212.70417 C 461.17714 199.01668 460.05567 184.8338 465.135 171.821 C 461.85914 166.72232 458.93953 161.47953 454.719 170.25 z " fill-rule="nonzero"></path><path transform="matrix(0.334579,0,0,0.334579,-16.309539,-16.539673)" stroke="#00c715" fill="none" d="M 453.5 254.665 C 441.27609 258.6586 451.74009 269.77964 457.564 274.663 C 464.85948 276.20574 470.25567 270.03364 475.039 265.5 C 473.07287 259.40806 468.70434 255.62667 461.97062 256.549 C 458.84521 255.01161 457.18079 251.31478 453.5 254.665 z " fill-rule="nonzero"></path><path transform="matrix(0.334579,0,0,0.334579,-16.309539,-16.539673)" stroke="#00c715" fill="none" d="M 497.455 588.369 C 495.51084 590.44118 494.8907 594.76593 491.31362 594.06006 C 486.23219 594.64875 480.86488 594.50052 475.95787 595.53767 C 467.91811 602.14708 459.01001 607.84664 451.93912 615.52244 C 449.64778 625.38334 466.30479 621.94666 472.28363 624.55363 C 482.02676 625.65238 491.86223 627.71951 501.69225 626.65975 C 507.02625 620.76236 503.35395 609.8011 504.50871 601.87697 C 503.33046 596.37225 506.95824 585.98062 501.82337 583.40367 C 499.93007 584.61305 498.71738 586.57234 497.455 588.369 z " fill-rule="nonzero"></path><path transform="matrix(0.334579,0,0,0.334579,-16.309539,-16.539673)" stroke="#00c715" fill="none" d="M 457.975 533.565 C 454.6776 541.88312 458.57228 551.58237 468.5533 550.13444 C 476.57384 551.69816 484.08911 556.16274 488.14061 562.99624 C 496.00438 556.52142 486.01729 546.51891 479.27825 543.43308 C 472.77543 539.17276 466.37185 534.69946 459.531 531 C 458.68894 531.62564 458.37803 532.65606 457.975 533.565 z " fill-rule="nonzero"></path><path transform="matrix(0.334579,0,0,0.334579,-16.309539,-16.539673)" stroke="#00c715" fill="none" d="M 475.88 269.48 C 472.52804 277.51449 452.50801 274.58824 460.28163 285.507 C 466.59435 294.35999 474.4328 279.07405 480.51623 275.96646 C 489.89637 270.59365 483.80896 257.37213 475.88 269.48 z " fill-rule="nonzero"></path><path transform="matrix(0.334579,0,0,0.334579,-16.309539,-16.539673)" stroke="#00c715" fill="none" d="M 467.188 523.065 C 454.56983 529.37229 472.14022 534.90307 477.24871 538.57715 C 484.57162 541.14127 490.3111 553.35056 498.72546 548.30011 C 505.65867 545.68654 503.83421 539.70181 496.82151 540.41427 C 485.99773 537.87311 481.45332 526.59881 473.692 520.009 C 471.37529 520.63328 469.28791 521.9413 467.188 523.065 z " fill-rule="nonzero"></path><path transform="matrix(0.334579,0,0,0.334579,-16.309539,-16.539673)" stroke="#00c715" fill="none" d="M 464.409 195.377 C 465.06163 198.28012 462.14843 206.59367 466.5 206.50422 C 543.04934 206.52281 619.60263 207.22426 696.14918 206.45063 C 700.7147 207.05426 710.34785 206.05854 702.16233 201.13605 C 689.89251 193.39575 674.55201 195.29982 660.71108 194.40741 C 600.15969 193.83718 539.59801 193.85182 479.04601 194.33908 C 474.19039 194.62515 469.11734 194.10641 464.409 195.377 z " fill-rule="nonzero"></path><path transform="matrix(0.334579,0,0,0.334579,-16.309539,-16.539673)" stroke="#00c715" fill="none" d=" M464.667 209.667 C 464.300 210.033,464.000 212.685,464.000 215.560 C 464.000 219.403,464.419 220.947,465.582 221.393 C 468.149 222.378,667.569 222.019,678.500 221.009 C 693.656 219.610,704.921 215.364,705.816 210.715 C 706.127 209.103,698.934 209.000,585.740 209.000 C 519.516 209.000,465.033 209.300,464.667 209.667 " fill-rule="nonzero"></path><path transform="matrix(0.334579,0,0,0.334579,-16.309539,-16.539673)" stroke="#00c715" fill="none" d="M 475.818 283.25 C 469.89171 288.44196 463.45237 295.48902 473.00252 300.87581 C 482.41981 312.08894 481.78492 291.49601 486.19845 286.23164 C 492.89288 282.4902 493.57992 269.21817 483.56187 275.67937 C 480.75208 277.9565 478.32504 280.65584 475.818 283.25 z " fill-rule="nonzero"></path><path transform="matrix(0.334579,0,0,0.334579,-16.309539,-16.539673)" stroke="#00c715" fill="none" d="M 522.285 456.25 C 507.90013 469.82839 495.15825 485.32474 484.77669 502.16583 C 479.98728 509.36253 476.2534 519.20138 484.23514 525.69816 C 489.67109 527.32225 492.90333 516.32275 496.90859 512.26357 C 498.95894 508.62207 502.34856 505.42542 503.54757 501.50113 L 504.5 481.5 C 511.12899 481.16669 517.75801 480.83336 524.387 480.5 C 526.64204 472.02426 528.05986 463.23071 531.75089 455.22708 C 532.2592 450.1956 523.81568 454.41482 522.285 456.25 z " fill-rule="nonzero"></path><path transform="matrix(0.334579,0,0,0.334579,-16.309539,-16.539673)" stroke="#00c715" fill="none" d="M 499.152 552.871 C 495.18413 559.50674 495.63576 568.03984 488.286 572.099 C 486.50757 578.12483 478.27036 587.43248 481.53813 591.8445 C 489.38028 594.0393 494.39546 587.20582 499.3237 582.44415 C 501.05321 580.12966 504.97833 578.70767 504.00281 575.29361 C 503.61619 567.84238 504.27634 560.23899 502.762 552.91998 C 502.10761 551.54563 500.11077 552.44321 499.152 552.871 z " fill-rule="nonzero"></path><path transform="matrix(0.334579,0,0,0.334579,-16.309539,-16.539673)" stroke="#00c715" fill="none" d="M 489.695 288.25 C 484.49631 295.25442 481.23149 305.5971 487.56422 313.00847 C 494.78073 321.59131 502.1313 330.48993 511.308 337 C 516.95104 332.1506 527.17996 323.12458 519.972 315.572 C 513.03469 309.72598 524.66023 301.90659 514.81907 297.63952 C 508.23447 292.64818 502.14129 284.94189 494.06169 283.26611 C 492.03429 284.32452 490.92081 286.43117 489.695 288.25 z " fill-rule="nonzero"></path><path transform="matrix(0.334579,0,0,0.334579,-16.309539,-16.539673)" stroke="#00c715" fill="none" d="M 495.068 522.097 C 489.15217 527.32092 488.16982 537.69693 498.49567 537.61608 C 501.97819 538.35812 505.52037 539.06415 503.96814 534.26925 C 503.41423 527.93117 504.76536 520.98981 502.0105 515.17588 C 498.84621 515.31073 497.00257 519.99512 495.068 522.097 z " fill-rule="nonzero"></path><path transform="matrix(0.334579,0,0,0.334579,-16.309539,-16.539673)" stroke="#00c715" fill="none" d="M 508.151 486.718 C 504.1431 495.33897 523.40342 493.39898 517.14465 503.96593 C 514.4188 507.59503 501.06274 510.97699 511.247 514.71612 C 517.15014 513.38434 532.32552 518.75305 531.38387 509.6835 C 521.19703 508.51184 517.9498 493.67373 530.03483 492.63739 C 532.88011 489.4798 532.29817 483.58207 527.00143 485.38671 C 521.01217 485.46182 514.88459 484.41742 509.01431 485.78402 L 508.151 486.718 z " fill-rule="nonzero"></path><path transform="matrix(0.334579,0,0,0.334579,-16.309539,-16.539673)" stroke="#00c715" fill="none" d="M 507.782 497.75 C 504.48728 503.55826 513.00837 508.08437 512.37032 500.00296 C 512.11329 498.2323 509.26759 495.6721 507.782 497.75 z " fill-rule="nonzero"></path><path transform="matrix(0.334579,0,0,0.334579,-16.309539,-16.539673)" stroke="#00c715" fill="none" d="M 507.667 517.667 C 506.61201 569.91185 507.08713 622.1919 507.08337 674.45024 C 507.77917 691.06594 505.55494 708.63893 512.76499 724.1891 C 514.02974 732.62961 523.82754 734.00088 525.73 725 C 533.18623 712.26779 531.05878 696.90173 531.84352 682.80096 C 532.14076 627.53485 531.94303 572.26689 532 517 C 523.89517 517.15113 515.70689 516.56207 507.667 517.667 z " fill-rule="nonzero"></path><path transform="matrix(0.334579,0,0,0.334579,-16.309539,-16.539673)" stroke="#00c715" fill="none" d="M 522.971 327.559 C 520.38141 332.81311 517.00264 337.60881 513.682 342.415 C 515.37789 345.85196 516.44779 356.28374 521.2565 351.99625 C 523.32949 343.06347 527.95009 334.64254 530.27772 326.06994 C 528.03463 321.30772 524.09921 323.3916 522.971 327.559 z " fill-rule="nonzero"></path><path transform="matrix(0.334579,0,0,0.334579,-16.309539,-16.539673)" stroke="#00c715" fill="none" d="M 518.384 448.442 C 517.08649 459.75727 530.39522 447.5635 518.97775 447.42978 L 518.384 448.442 z " fill-rule="nonzero"></path><path transform="matrix(0.334579,0,0,0.334579,-16.309539,-16.539673)" stroke="#00c715" fill="none" d="M 572.003 266.211 C 567.13973 277.61201 556.4964 287.96979 543.77559 289.25639 C 536.68101 286.15086 524.49676 291.65049 533.33608 299.15334 C 538.29902 304.57495 552.82902 304.07938 554.759 306.415 C 546.04262 307.49208 536.17096 307.83093 529.41792 301.31573 C 518.64343 303.57114 524.12978 318.04322 532.85372 320.05312 C 544.85779 326.40633 559.1366 325.6933 572.209 324.11 C 577.35744 318.86082 583.63603 312.05154 586.5437 306.08003 C 579.20517 301.63642 571.54736 295.55273 574.34206 285.75037 C 572.4549 277.40619 583.64524 268.29753 580.12709 262.10151 C 574.82612 258.06205 573.68451 261.22511 572.003 266.211 z " fill-rule="nonzero"></path><path transform="matrix(0.334579,0,0,0.334579,-16.309539,-16.539673)" stroke="#00c715" fill="none" d="M 532.423 329.148 C 528.3005 339.95064 525.02461 351.18193 523.025 362.573 C 526.30821 376.7406 532.26054 390.16653 537.21556 403.80839 C 541.81591 412.81038 553.02185 407.68874 555.28863 400.07625 C 560.21127 398.57438 570.94453 401.88905 566.15401 392.69716 C 560.60564 375.42753 557.69544 357.25932 557.04858 339.15087 C 554.67642 330.64063 576.00589 333.14897 569.90775 326.93613 C 560.01714 327.24785 549.99085 328.48152 540.07413 326.87801 C 537.06904 326.29834 533.49838 325.1973 532.423 329.148 z " fill-rule="nonzero"></path><path transform="matrix(0.334579,0,0,0.334579,-16.309539,-16.539673)" stroke="#00c715" fill="none" d="M 531.75 434.546 C 527.74849 438.52083 519.25968 446.79756 530.40369 446.92545 C 537.24145 445.74763 545.07196 437.24419 546.26956 431.22841 C 540.57087 421.05809 537.11225 429.69212 531.75 434.546 z " fill-rule="nonzero"></path><path transform="matrix(0.334579,0,0,0.334579,-16.309539,-16.539673)" stroke="#00c715" fill="none" d="M 528.2 498.2 C 523.425 503.58185 534.7221 508.44089 531.93405 499.59889 C 532.13372 497.2969 529.75831 495.74604 528.2 498.2 z " fill-rule="nonzero"></path><path transform="matrix(0.334579,0,0,0.334579,-16.309539,-16.539673)" stroke="#00c715" fill="none" d="M 545.873 439.887 C 536.20309 449.22136 532.35258 462.75874 530.1215 475.604 C 531.40277 485.5651 536.81756 474.09448 536.78346 469.67848 C 540.57129 457.5969 546.45154 446.07209 555.00379 436.69839 C 556.48654 429.44668 546.74923 438.59353 545.873 439.887 z " fill-rule="nonzero"></path><path transform="matrix(0.334579,0,0,0.334579,-16.309539,-16.539673)" stroke="#00c715" fill="none" d="M 556.004 438.996 C 546.93255 449.74178 540.52197 462.89671 537.10729 476.51425 C 535.65613 502.72907 536.0555 529.04579 536.19145 555.30049 C 534.54561 566.50273 544.8009 557.26938 542.74772 551.04085 C 543.65961 526.62708 542.02203 502.12732 543.91884 477.75803 C 546.35162 464.63935 551.72854 451.63274 561.01212 441.896 C 563.90237 437.89661 558.47186 435.5152 556.004 438.996 z " fill-rule="nonzero"></path><path transform="matrix(0.334579,0,0,0.334579,-16.309539,-16.539673)" stroke="#00c715" fill="none" d="M 549.114 547.082 C 544.17859 551.91765 551.64267 562.253 542.05603 565.12891 C 540.22743 568.12589 536.12346 570.58467 535.98163 574.26093 C 536.15496 592.00726 536.32769 609.75366 536.5 627.5 C 543.90423 627.4497 551.44942 628.65044 558.73663 627.05088 C 565.80005 622.81652 551.99495 610.63724 557.64612 608.66513 C 565.19181 617.1319 565.83924 628.82154 566.52149 639.57185 C 566.05246 648.68969 572.33788 655.29689 578.16439 661.35376 C 587.63813 675.15809 604.21326 680.61345 618.4224 688.08846 C 631.67304 694.53755 647.36517 702.14693 651.51905 717.64016 C 653.07316 727.58427 646.32985 736.33102 642.26561 744.87131 C 636.63637 754.29272 631.85957 764.48541 624.61817 772.78211 C 615.27531 780.97934 604.82886 787.77466 594.82692 795.08017 C 597.1459 801.11907 608.56736 802.65743 613.94573 807.69294 C 616.61576 810.28018 619.1672 810.63205 621.53352 807.4949 C 627.29014 799.0325 635.39247 805.71231 642.50647 805.06863 C 649.953 799.06421 646.68265 789.22422 647.36755 781.13399 C 647.69209 777.21125 652.40836 772.20749 650.655 779.5 C 650.16577 790.39977 657.44062 775.24915 658.88145 771.78735 C 667.51526 756.65519 676.62008 741.76294 686.14134 727.1755 C 691.13832 719.35967 700.93461 711.59566 697.15995 701.25953 C 695.71348 691.25593 684.58818 690.18551 678.4174 684.37682 C 670.45621 672.9641 672.09842 657.07305 678.55395 645.32504 C 683.19387 635.53433 690.39907 626.1238 690.9053 614.99425 C 687.61474 606.56919 678.33035 602.7353 671.3883 597.73325 C 663.90939 593.27341 656.61466 588.39458 648.76981 584.61662 C 642.49491 589.23848 648.03285 602.51441 650.43263 609.55466 C 653.35571 616.24997 659.50141 622.35965 657.59146 630.23617 C 656.24871 633.4406 649.6212 632.72486 646.45062 633.90088 C 638.37315 630.35865 633.64463 621.50686 630.88496 613.46218 C 628.07746 600.86381 630.5654 587.74711 628.413 575.075 C 620.55847 570.56751 612.07083 566.78285 603.326 564.428 C 600.36058 570.77696 603.14141 579.07058 604.3481 585.94133 C 605.39402 595.11678 613.40822 601.64732 615.23142 609.99329 C 609.89464 621.42708 595.14431 614.3911 593.34154 604.1987 C 587.27063 592.98027 585.65462 580.13654 585.87762 567.54952 C 586.17307 557.79575 576.22221 553.6886 568.28245 551.79098 C 561.94997 550.7043 555.51643 544.65079 549.114 547.082 z " fill-rule="nonzero"></path><path transform="matrix(0.334579,0,0,0.334579,-16.309539,-16.539673)" stroke="#00c715" fill="none" d="M 540.905 270.615 C 539.67806 275.8603 549.54586 276.02827 550.19401 281.93513 C 560.53697 285.22625 554.08677 263.66514 544.98015 269.14406 C 543.58152 269.39493 541.97697 269.55103 540.905 270.615 z M 539.558 278.888 C 533.42268 286.11309 549.39802 290.03682 545.434 280.291 C 545.09124 276.42524 541.24757 274.40096 539.558 278.888 z " fill-rule="nonzero"></path><path transform="matrix(0.334579,0,0,0.334579,-16.309539,-16.539673)" stroke="#00c715" fill="none" d="M 543.054 258.557 C 536.7019 264.82018 544.38934 269.06824 549.56791 264.23792 C 553.21125 266.66909 557.15055 270.61703 558.90627 274.96636 C 566.86897 277.73612 573.20818 259.68535 566.99245 255.55719 C 562.20045 254.35743 564.60233 261.3561 558.58587 259.17887 C 552.60478 262.10282 552.19416 247.46692 545.61754 254.77769 C 544.63915 255.94857 543.85313 257.26265 543.054 258.557 z " fill-rule="nonzero"></path><path transform="matrix(0.334579,0,0,0.334579,-16.309539,-16.539673)" stroke="#00c715" fill="none" d="M 553.365 237.25 C 548.19511 241.12676 539.54543 252.8444 552.06124 251.06958 C 563.39505 251.70688 574.6903 254.40735 584.17401 260.87171 C 590.07333 263.56949 593.86208 277.94423 600.40304 266.97025 C 602.81209 255.42869 586.37985 257.92784 580.9711 250.41425 C 572.65252 245.60486 567.31502 237.371 560.602 231 C 557.78981 232.52175 555.66418 235.08017 553.365 237.25 z " fill-rule="nonzero"></path><path transform="matrix(0.334579,0,0,0.334579,-16.309539,-16.539673)" stroke="#00c715" fill="none" d="M 546.162 631.717 C 540.04542 636.92403 551.30594 645.82312 557.26704 640.09833 C 570.84731 633.68351 551.76504 628.71754 546.162 631.717 z " fill-rule="nonzero"></path><path transform="matrix(0.334579,0,0,0.334579,-16.309539,-16.539673)" stroke="#00c715" fill="none" d="M 598.266 479.234 C 591.01193 488.80474 579.84158 494.62491 567.97927 495.92005 C 559.00203 498.13053 552.63677 506.04392 546.892 512.784 C 545.27438 519.16235 546.17783 525.83122 547.298 532.223 C 562.35317 531.56802 575.50926 522.79575 587.56525 514.53221 C 598.43422 506.0207 610.68891 496.11291 613.57168 481.89378 C 612.64376 476.35616 601.18706 474.17287 598.266 479.234 z " fill-rule="nonzero"></path><path transform="matrix(0.334579,0,0,0.334579,-16.309539,-16.539673)" stroke="#00c715" fill="none" d="M 547.598 536.891 C 541.13188 545.85834 558.98158 542.09809 552.12036 535.84602 C 550.62912 534.589 548.63244 535.63428 547.598 536.891 z " fill-rule="nonzero"></path><path transform="matrix(0.334579,0,0,0.334579,-16.309539,-16.539673)" stroke="#00c715" fill="none" d="M 556.75 404.08 C 550.91661 409.40104 567.83265 412.65255 558.65703 419.16837 C 555.49805 422.17948 542.12618 422.4848 551.01655 427.90088 C 558.40422 431.12216 564.94126 438.39836 573.62919 436.73774 C 581.82389 436.58983 588.15145 429.45341 580.805 422.79353 C 574.86202 417.12915 573.79075 405.02068 566.01435 403.03291 C 562.92264 403.05085 559.68915 402.98596 556.75 404.08 z " fill-rule="nonzero"></path><path transform="matrix(0.334579,0,0,0.334579,-16.309539,-16.539673)" stroke="#00c715" fill="none" d="M 560.665 476.562 C 548.93099 475.71246 545.18014 487.02898 547.2185 496.74175 C 546.32407 503.02934 550.27204 505.57401 554.1276 499.75132 C 559.29527 491.74331 568.98809 492.35465 576.97164 489.5856 C 582.096 486.50668 595.2228 483.40808 592.559 476.441 C 582.23955 473.91596 571.12292 475.29072 560.665 476.562 z " fill-rule="nonzero"></path><path transform="matrix(0.334579,0,0,0.334579,-16.309539,-16.539673)" stroke="#00c715" fill="none" d="M 552.607 816.868 C 544.21931 818.88413 550.28804 826.68332 556.769 824 C 564.6351 827.25459 572.15075 816.11775 560.7105 816.0576 C 557.98818 815.94174 555.26399 816.29543 552.607 816.868 z " fill-rule="nonzero"></path><path transform="matrix(0.334579,0,0,0.334579,-16.309539,-16.539673)" stroke="#00c715" fill="none" d="M 559.958 798.75 C 554.95714 802.95216 545.82758 815.57547 559.20028 813.97166 C 562.70448 813.71396 566.7814 814.55429 569.97821 813.61025 C 572.78927 809.37771 578.63787 805.36189 577.11343 799.83777 C 572.81245 793.97554 564.45921 791.36377 559.958 798.75 z " fill-rule="nonzero"></path><path transform="matrix(0.334579,0,0,0.334579,-16.309539,-16.539673)" stroke="#00c715" fill="none" d="M 651.5 306.517 C 621.4973 316.57682 591.03888 325.35824 561.362 336.342 C 559.73801 344.8293 561.68372 353.71972 562.4144 362.29801 C 567.31388 399.1384 586.01839 435.6168 617.79852 456.16289 C 629.53202 463.7488 641.95933 470.55615 655.15553 475.20446 C 664.95232 477.26186 667.99231 464.65143 672.51862 458.33397 C 684.63702 435.18952 693.70162 408.98113 690.2145 382.52113 C 687.38796 354.57577 676.64182 327.54374 659.712 305.179 C 657.0287 304.26455 654.08403 305.89379 651.5 306.517 z M 587.45 435.947 C 578.28881 439.7741 566.89157 440.25232 560.64358 449.12525 C 555.92611 455.73642 548.6988 463.18354 550.58033 471.883 C 557.01099 476.51916 565.71534 469.31166 573.32633 470.78531 C 584.05379 470.78515 594.7749 471.29079 605.5 471.5 C 604.98022 462.94802 607.09275 452.26187 599.21728 446.52767 C 594.97347 444.43914 592.51478 433.76823 587.45 435.947 z M 661.704 315.75 C 680.70685 344.80655 690.05341 380.90787 684.09063 415.38493 C 679.69203 435.38036 670.68905 454.25052 658.95 470.964 C 629.83157 460.79614 602.0569 442.65185 586.20994 415.58879 C 576.97783 399.38406 570.05047 381.73789 567.85844 363.1204 C 566.60174 355.23473 566.25535 347.2528 565.725 339.297 C 596.10391 329.647 626.27097 319.3035 656.762 310.033 C 658.96357 311.27769 660.25855 313.75991 661.704 315.75 z " fill-rule="nonzero"></path><path transform="matrix(0.334579,0,0,0.334579,-16.309539,-16.539673)" stroke="#00c715" fill="none" d="M 558.201 539.957 C 550.90062 545.42679 567.3924 546.22736 571.04905 548.59143 C 575.69593 551.74347 587.18843 553.17918 583.176 544.66 C 576.64217 540.17603 567.99319 537.05375 560.07763 538.94222 L 559.16779 539.38681 L 558.201 539.957 z " fill-rule="nonzero"></path><path transform="matrix(0.334579,0,0,0.334579,-16.309539,-16.539673)" stroke="#00c715" fill="none" d="M 575.289 528.313 C 569.97786 529.91598 567.02122 534.30878 574.14386 535.98827 C 579.02308 538.71312 589.56095 543.96747 586.64737 533.66007 C 587.84394 526.9554 582.71374 522.35438 576.99476 527.44702 L 575.289 528.313 z " fill-rule="nonzero"></path><path transform="matrix(0.334579,0,0,0.334579,-16.309539,-16.539673)" stroke="#00c715" fill="none" d="M 634.245 706.353 C 626.34428 726.79087 616.89614 746.8443 604.61227 765.05733 C 598.33311 771.39663 589.69995 774.98142 582.49373 780.24322 C 577.51142 783.69611 562.92956 790.93674 574.8365 795.38588 C 583.18423 802.14845 590.10066 790.59025 597.50555 787.60932 C 607.86723 780.75365 619.61577 774.69029 625.88579 763.42427 C 633.29983 751.38493 641.53766 739.45552 645.93413 725.90776 C 648.49764 718.50479 643.00905 704.67784 634.245 706.353 z " fill-rule="nonzero"></path><path transform="matrix(0.334579,0,0,0.334579,-16.309539,-16.539673)" stroke="#00c715" fill="none" d="M 578.562 229.374 C 570.43916 230.76552 568.53979 236.37317 575.72705 240.98162 C 581.78474 247.726 589.04976 253.36971 597.78356 256.11354 C 608.49719 259.29688 603.95702 276.6209 593.15493 274.5841 C 588.27953 273.55461 584.46186 262.68804 581.21448 272.66802 C 578.72866 280.45565 575.18443 290.9171 582.14424 297.45903 C 586.96424 303.5537 599.57087 306.61233 604.08213 299.80763 C 596.38417 297.80258 590.89051 290.71733 598.28163 284.32412 C 603.51572 276.63738 612.74541 269.91699 611.43108 259.50002 C 611.26838 256.55947 612.35304 253.22288 609.72954 251.06363 C 603.65928 243.15076 598.68438 234.26446 591.52773 227.29162 C 587.38857 224.50771 582.58104 228.06736 578.562 229.374 z " fill-rule="nonzero"></path><path transform="matrix(0.334579,0,0,0.334579,-16.309539,-16.539673)" stroke="#00c715" fill="none" d="M 579.709 823.673 C 574.19263 820.88189 564.85524 830.75872 574.54829 830.68864 C 586.44891 831.08763 598.48538 831.57043 610.315 830.071 C 616.69216 828.23448 614.57061 822.35994 608.21063 824.02512 C 598.72785 823.42314 589.20321 823.26023 579.709 823.673 z " fill-rule="nonzero"></path><path transform="matrix(0.334579,0,0,0.334579,-16.309539,-16.539673)" stroke="#00c715" fill="none" d="M 586.043 801.142 C 582.51764 806.70668 572.9773 813.73039 576.514 820.367 C 588.88063 820.3478 601.40548 819.9239 613.62384 818.09845 C 616.98739 811.93029 605.02279 807.23625 600.85188 803.55577 C 596.59587 801.35274 590.25941 796.4482 586.043 801.142 z " fill-rule="nonzero"></path><path transform="matrix(0.334579,0,0,0.334579,-16.309539,-16.539673)" stroke="#00c715" fill="none" d="M 599.5 305.878 C 591.03906 308.65809 581.13415 315.48378 580.42873 324.8584 C 588.72924 325.49604 596.79297 320.98359 604.84007 318.94695 C 611.53564 315.81636 621.65595 315.58987 625.97762 310.17288 C 619.10587 304.1825 608.00056 304.98179 599.5 305.878 z " fill-rule="nonzero"></path><path transform="matrix(0.334579,0,0,0.334579,-16.309539,-16.539673)" stroke="#00c715" fill="none" d="M 613.831 330.469 C 607.42564 332.50859 590.70436 335.54411 603.20058 342.9517 C 609.67326 349.49238 608.34587 360.70529 597.57286 360.45786 C 592.09798 361.50612 580.00599 355.09749 584.72535 366.02724 C 586.79864 373.97975 589.46376 381.77967 591.45113 389.74625 C 597.39152 394.23526 603.19951 381.22364 611.10764 382.71673 C 620.5671 380.31497 622.79411 399.57357 611.72913 398.48588 C 605.48935 401.08956 591.87077 395.86169 597.36303 407.52376 C 600.44423 413.6807 600.29376 427.16029 606.93588 427.99737 C 613.1515 425.28302 622.34152 414.02697 628.08296 422.22898 C 633.55454 428.77026 627.19998 443.18185 634.23088 445.98422 C 643.85522 443.52091 653.40647 440.6327 662.71634 437.18297 C 665.25148 429.79071 653.51267 423.49384 654.18475 414.78868 C 652.94719 404.4071 668.4261 408.57804 675.0915 406.5245 C 678.89945 401.05039 671.87892 391.25833 670.79228 384.23474 C 667.9507 371.29842 658.75304 386.53327 651.26812 386.27608 C 641.71467 389.53371 637.54808 370.07736 649.29508 370.66535 C 654.94056 367.19416 670.60255 374.42491 664.52592 362.92078 C 661.8034 354.62806 659.4309 346.09321 655.413 338.328 C 648.50546 341.04262 643.27683 349.03839 634.768 347.809 C 625.30301 343.92638 635.31852 329.37025 628.55475 326.51063 C 623.51634 327.22339 618.69202 329.03108 613.831 330.469 z M 625.292 344.031 C 625.67264 355.88768 637.36807 356.50099 645.36554 351.05052 C 649.89706 348.29652 655.82618 344.6738 656.41272 352.69418 C 659.37152 358.31017 659.56846 365.23915 651.13201 363.23159 C 641.97305 363.89323 629.46491 370.10871 636.01392 380.94814 C 636.46101 392.19012 647.02689 395.6799 655.80844 390.31536 C 662.58313 385.23644 668.97938 386.43402 669.68607 395.48607 C 674.45605 404.94291 658.54407 399.30662 653.87689 403.46058 C 642.92586 405.26711 646.8419 417.19232 650.42968 423.8709 C 654.17793 428.91839 654.79816 435.22212 646.98113 435.33587 C 641.81276 437.95165 636.10486 437.4851 637.69457 430.28726 C 636.44998 422.75134 634.13791 408.28286 623.25391 412.97834 C 616.18454 414.46068 604.87732 425.18206 604.36052 411.97205 C 599.0667 401.6831 614.91925 405.04441 620.43912 401.37125 C 624.29696 399.61708 629.66057 395.74765 626.7438 391.09658 C 624.61379 385.66506 624.91812 378.04087 619.388 374.957 C 610.88027 373.03032 603.20726 379.34578 595.64 380.92087 C 591.98917 375.90008 587.38543 363.8382 598.26508 365.42317 C 605.7485 364.71888 619.27094 360.92779 613.86742 350.81035 C 612.38784 345.02713 606.63199 336.01732 616.71544 335.92424 C 623.08045 332.41829 623.778 339.78316 625.292 344.031 z " fill-rule="nonzero"></path><path transform="matrix(0.334579,0,0,0.334579,-16.309539,-16.539673)" stroke="#00c715" fill="none" d="M 589 547 C 582.84253 553.12597 591.81705 565.17287 599.25981 559.69725 C 607.03599 554.02218 596.07109 540.04682 589 547 z " fill-rule="nonzero"></path><path transform="matrix(0.334579,0,0,0.334579,-16.309539,-16.539673)" stroke="#00c715" fill="none" d="M 590.33 565.582 C 590.14333 577.59614 592.1687 589.84622 596.119 601.21366 C 597.32074 607.23556 608.26234 618.47071 611.40167 608.468 C 608.57383 600.28113 599.98769 594.79021 599.45522 585.50167 C 598.31704 578.55465 598.09561 571.50513 597.5 564.5 C 595.192 564.56668 591.68127 562.98265 590.33 565.582 z " fill-rule="nonzero"></path><path transform="matrix(0.334579,0,0,0.334579,-16.309539,-16.539673)" stroke="#00c715" fill="none" d="M 591.042 519.45 C 590.953 526.17531 588.97506 539.6543 596.96488 541.54636 C 602.2226 536.26314 599.14104 524.22256 595.57448 518.3797 C 594.04665 517.68308 592.09564 518.13423 591.042 519.45 z " fill-rule="nonzero"></path><path transform="matrix(0.334579,0,0,0.334579,-16.309539,-16.539673)" stroke="#00c715" fill="none" d="M 603.725 508.708 C 594.90638 513.08194 604.27627 522.92751 603.18596 530.71991 C 604.33651 538.72406 601.61497 550.26787 612.98385 551.05795 C 618.60183 551.39416 631.43167 561.57781 632.01573 552.25714 C 631.56048 540.11273 629.72399 527.59117 624.37025 516.58248 C 620.81268 510.05679 610.55458 501.24432 603.725 508.708 z " fill-rule="nonzero"></path><path transform="matrix(0.334579,0,0,0.334579,-16.309539,-16.539673)" stroke="#00c715" fill="none" d="M 606.366 556.565 C 604.29972 564.99111 619.85577 566.34512 625.92638 569.40945 C 635.7303 565.08752 625.25869 557.86426 618.859 556.67975 C 614.95237 555.59302 609.25786 551.55435 606.366 556.565 z " fill-rule="nonzero"></path><path transform="matrix(0.334579,0,0,0.334579,-16.309539,-16.539673)" stroke="#00c715" fill="none" d="M 623 508.491 C 628.74085 515.7005 633.07639 524.05212 633.48015 533.45506 C 635.23857 541.86312 633.61936 552.13774 638.21427 559.22019 C 649.07531 557.22319 642.41232 541.93414 642.25717 534.20853 C 640.28551 524.35757 637.89786 511.05764 626.5019 508.25421 C 625.45827 508.1754 623.67991 507.40803 623 508.491 z " fill-rule="nonzero"></path><path transform="matrix(0.334579,0,0,0.334579,-16.309539,-16.539673)" stroke="#00c715" fill="none" d="M 726.61 439.055 C 716.63615 451.02945 708.79356 466.7467 711.80987 482.73218 C 712.09177 486.64225 714.82016 500.20543 709.30706 490.56529 C 703.47647 485.38264 706.57096 473.73671 700.77752 470.66166 C 694.69845 475.90423 694.438 485.26899 694.64247 492.81917 C 695.20551 505.68714 704.24784 515.38183 712.56738 524.21991 C 722.44671 535.81061 731.80712 547.941 742.072 559.134 C 741.74783 568.03078 728.1797 567.75941 721.28752 568.06314 C 705.08529 567.74237 693.64103 554.56556 681.67496 545.44212 C 669.68802 536.03438 658.52037 525.19135 645.01596 517.97172 C 638.67632 519.3802 646.81471 531.42476 645.60312 537.23137 C 647.15877 545.83991 646.31951 554.72102 647.75806 563.27245 C 652.08777 570.1068 661.09354 571.62436 667.41602 576.15709 C 675.91639 580.4285 682.45256 588.25991 691.59725 591.12262 C 697.697 588.58422 684.41603 573.17706 693.91963 575.21019 C 702.85893 582.01127 707.19643 593.01982 714.62679 601.27851 C 720.70262 609.81647 728.98251 616.80318 739.17435 619.7743 C 753.80965 624.93529 771.16788 627.05107 785.00422 618.51229 C 790.19621 611.60277 773.26465 615.09515 768.91204 613.22865 C 764.60331 614.1135 751.59655 607.24768 762.021 605.979 C 776.82871 603.05304 788.31995 589.98843 792.52287 575.90662 C 792.47959 571.56255 794.51096 558.39423 790.05763 559.48788 C 785.8304 566.5554 781.03377 576.30553 771.248 575.581 C 775.00714 568.80006 783.23367 564.01397 783.27352 555.37072 C 785.06995 538.00872 773.12496 523.83087 765.9883 509.10727 C 762.0839 504.83955 762.01227 491.73666 755.37915 493.21035 C 755.04385 502.51611 761.80706 510.56913 765.25803 518.92344 C 766.77431 522.91366 771.70824 529.89077 770.9343 532.43134 C 759.70137 515.75962 749.8905 498.124 738.67882 481.41598 C 730.9167 469.38779 729.51485 454.34963 733.04757 440.66667 C 734.91273 436.35162 733.73416 429.57472 729.2926 436.20257 C 728.38574 437.14143 727.49697 438.09743 726.61 439.055 z M 634.655 566.829 C 629.11948 572.98358 637.75925 583.92692 644.95117 578.84749 C 651.88051 572.39235 642.21138 560.32911 634.655 566.829 z " fill-rule="nonzero"></path><path transform="matrix(0.334579,0,0,0.334579,-16.309539,-16.539673)" stroke="#00c715" fill="none" d="M 632.546 584.791 C 631.72183 596.82085 634.50441 609.10017 639.101 620.192 C 640.45208 626.09676 655.54808 634.9071 654.32319 624.47079 C 647.91005 615.26833 640.86595 605.34194 641.34689 593.50627 C 643.95498 587.86068 639.63734 580.02499 633.26061 582.94166 L 632.546 584.791 z " fill-rule="nonzero"></path><path transform="matrix(0.334579,0,0,0.334579,-16.309539,-16.539673)" stroke="#00c715" fill="none" d="M 652.009 575.148 C 644.64787 583.1016 662.07783 586.36938 666.71143 591.38226 C 675.16345 596.27124 682.4357 603.00818 691.00798 607.63871 C 697.5397 602.72142 684.41283 592.9274 680.55752 588.22273 C 673.59884 581.21352 663.63195 578.43327 656.22044 572.14702 C 654.40379 572.14413 653.24685 574.12132 652.009 575.148 z " fill-rule="nonzero"></path><path transform="matrix(0.334579,0,0,0.334579,-16.309539,-16.539673)" stroke="#00c715" fill="none" d="M 235 629.5 C 236.34626 631.51499 236.17833 627.55331 235 629.5 z " fill-rule="nonzero"></path><path transform="matrix(0.334579,0,0,0.334579,-16.309539,-16.539673)" stroke="#00c715" fill="none" d="M 240 623.5 C 241.34626 625.51499 241.17833 621.55331 240 623.5 z " fill-rule="nonzero"></path><path transform="matrix(0.334579,0,0,0.334579,-16.309539,-16.539673)" stroke="#00c715" fill="none" d="M 243 605.5 C 244.34626 607.51499 244.17833 603.55331 243 605.5 z " fill-rule="nonzero"></path><path transform="matrix(0.334579,0,0,0.334579,-16.309539,-16.539673)" stroke="#00c715" fill="none" d="M 246 528.5 C 247.34626 530.51499 247.17833 526.55331 246 528.5 z " fill-rule="nonzero"></path><path transform="matrix(0.334579,0,0,0.334579,-16.309539,-16.539673)" stroke="#00c715" fill="none" d="M 254 509.5 C 255.34626 511.51499 255.17833 507.55331 254 509.5 z " fill-rule="nonzero"></path><path transform="matrix(0.334579,0,0,0.334579,-16.309539,-16.539673)" stroke="#00c715" fill="none" d="M 257 481.5 C 258.34626 483.51499 258.17833 479.55331 257 481.5 z " fill-rule="nonzero"></path><path transform="matrix(0.334579,0,0,0.334579,-16.309539,-16.539673)" stroke="#00c715" fill="none" d="M 265 475.5 C 266.34626 477.51499 266.17833 473.55331 265 475.5 z " fill-rule="nonzero"></path><path transform="matrix(0.334579,0,0,0.334579,-16.309539,-16.539673)" stroke="#00c715" fill="none" d="M 283 465.5 C 284.34626 467.51499 284.17833 463.55331 283 465.5 z " fill-rule="nonzero"></path><path transform="matrix(0.334579,0,0,0.334579,-16.309539,-16.539673)" stroke="#00c715" fill="none" d="M 291 484.5 C 292.34626 486.51499 292.17833 482.55331 291 484.5 z " fill-rule="nonzero"></path><path transform="matrix(0.334579,0,0,0.334579,-16.309539,-16.539673)" stroke="#00c715" fill="none" d="M 311 457.5 C 312.34626 459.51499 312.17833 455.55331 311 457.5 z " fill-rule="nonzero"></path><path transform="matrix(0.334579,0,0,0.334579,-16.309539,-16.539673)" stroke="#00c715" fill="none" d="M 327 466.5 C 328.34626 468.51499 328.17833 464.55331 327 466.5 z " fill-rule="nonzero"></path><path transform="matrix(0.334579,0,0,0.334579,-16.309539,-16.539673)" stroke="#00c715" fill="none" d="M 332 505.5 C 333.34626 507.51499 333.17833 503.55331 332 505.5 z " fill-rule="nonzero"></path><path transform="matrix(0.334579,0,0,0.334579,-16.309539,-16.539673)" stroke="#00c715" fill="none" d="M 336 474.5 C 337.34626 476.51499 337.17833 472.55331 336 474.5 z " fill-rule="nonzero"></path><path transform="matrix(0.334579,0,0,0.334579,-16.309539,-16.539673)" stroke="#00c715" fill="none" d="M 338 482.5 C 339.34626 484.51499 339.17833 480.55331 338 482.5 z " fill-rule="nonzero"></path><path transform="matrix(0.334579,0,0,0.334579,-16.309539,-16.539673)" stroke="#00c715" fill="none" d="M 344 352.5 C 345.34626 354.51499 345.17833 350.55331 344 352.5 z " fill-rule="nonzero"></path><path transform="matrix(0.334579,0,0,0.334579,-16.309539,-16.539673)" stroke="#00c715" fill="none" d="M 348 520.5 C 349.34626 522.51499 349.17833 518.55331 348 520.5 z " fill-rule="nonzero"></path><path transform="matrix(0.334579,0,0,0.334579,-16.309539,-16.539673)" stroke="#00c715" fill="none" d="M 356 442.5 C 357.34626 444.51499 357.17833 440.55331 356 442.5 z " fill-rule="nonzero"></path><path transform="matrix(0.334579,0,0,0.334579,-16.309539,-16.539673)" stroke="#00c715" fill="none" d="M 359 491.5 C 360.34626 493.51499 360.17833 489.55331 359 491.5 z " fill-rule="nonzero"></path><path transform="matrix(0.334579,0,0,0.334579,-16.309539,-16.539673)" stroke="#00c715" fill="none" d="M 360 335.5 C 361.34626 337.51499 361.17833 333.55331 360 335.5 z " fill-rule="nonzero"></path><path transform="matrix(0.334579,0,0,0.334579,-16.309539,-16.539673)" stroke="#00c715" fill="none" d="M 363 539.5 C 364.34626 541.51499 364.17833 537.55331 363 539.5 z " fill-rule="nonzero"></path><path transform="matrix(0.334579,0,0,0.334579,-16.309539,-16.539673)" stroke="#00c715" fill="none" d="M 363 557.5 C 364.34626 559.51499 364.17833 555.55331 363 557.5 z " fill-rule="nonzero"></path><path transform="matrix(0.334579,0,0,0.334579,-16.309539,-16.539673)" stroke="#00c715" fill="none" d="M 368 648.5 C 369.34626 650.51499 369.17833 646.55331 368 648.5 z " fill-rule="nonzero"></path><path transform="matrix(0.334579,0,0,0.334579,-16.309539,-16.539673)" stroke="#00c715" fill="none" d="M 377 441.5 C 378.34626 443.51499 378.17833 439.55331 377 441.5 z " fill-rule="nonzero"></path><path transform="matrix(0.334579,0,0,0.334579,-16.309539,-16.539673)" stroke="#00c715" fill="none" d="M 385 585.5 C 386.34626 587.51499 386.17833 583.55331 385 585.5 z " fill-rule="nonzero"></path><path transform="matrix(0.334579,0,0,0.334579,-16.309539,-16.539673)" stroke="#00c715" fill="none" d="M 387 408.5 C 388.34626 410.51499 388.17833 406.55331 387 408.5 z " fill-rule="nonzero"></path><path transform="matrix(0.334579,0,0,0.334579,-16.309539,-16.539673)" stroke="#00c715" fill="none" d="M 387 488.5 C 388.34626 490.51499 388.17833 486.55331 387 488.5 z " fill-rule="nonzero"></path><path transform="matrix(0.334579,0,0,0.334579,-16.309539,-16.539673)" stroke="#00c715" fill="none" d="M 387 631.5 C 388.34626 633.51499 388.17833 629.55331 387 631.5 z " fill-rule="nonzero"></path><path transform="matrix(0.334579,0,0,0.334579,-16.309539,-16.539673)" stroke="#00c715" fill="none" d="M 408 258.5 C 409.34626 260.51499 409.17833 256.55331 408 258.5 z " fill-rule="nonzero"></path><path transform="matrix(0.334579,0,0,0.334579,-16.309539,-16.539673)" stroke="#00c715" fill="none" d="M 410 599.5 C 411.34626 601.51499 411.17833 597.55331 410 599.5 z " fill-rule="nonzero"></path><path transform="matrix(0.334579,0,0,0.334579,-16.309539,-16.539673)" stroke="#00c715" fill="none" d="M 414 203.5 C 415.34626 205.51499 415.17833 201.55331 414 203.5 z " fill-rule="nonzero"></path><path transform="matrix(0.334579,0,0,0.334579,-16.309539,-16.539673)" stroke="#00c715" fill="none" d="M 414 630.5 C 415.34626 632.51499 415.17833 628.55331 414 630.5 z " fill-rule="nonzero"></path><path transform="matrix(0.334579,0,0,0.334579,-16.309539,-16.539673)" stroke="#00c715" fill="none" d="M 419 292.5 C 420.34626 294.51499 420.17833 290.55331 419 292.5 z " fill-rule="nonzero"></path><path transform="matrix(0.334579,0,0,0.334579,-16.309539,-16.539673)" stroke="#00c715" fill="none" d="M 420 554.5 C 421.34626 556.51499 421.17833 552.55331 420 554.5 z " fill-rule="nonzero"></path><path transform="matrix(0.334579,0,0,0.334579,-16.309539,-16.539673)" stroke="#00c715" fill="none" d="M 420 631.5 C 421.34626 633.51499 421.17833 629.55331 420 631.5 z " fill-rule="nonzero"></path><path transform="matrix(0.334579,0,0,0.334579,-16.309539,-16.539673)" stroke="#00c715" fill="none" d="M 423 583.5 C 424.34626 585.51499 424.17833 581.55331 423 583.5 z " fill-rule="nonzero"></path><path transform="matrix(0.334579,0,0,0.334579,-16.309539,-16.539673)" stroke="#00c715" fill="none" d="M 431 431.5 C 432.34626 433.51499 432.17833 429.55331 431 431.5 z " fill-rule="nonzero"></path><path transform="matrix(0.334579,0,0,0.334579,-16.309539,-16.539673)" stroke="#00c715" fill="none" d="M 435 289.5 C 436.34626 291.51499 436.17833 287.55331 435 289.5 z " fill-rule="nonzero"></path><path transform="matrix(0.334579,0,0,0.334579,-16.309539,-16.539673)" stroke="#00c715" fill="none" d="M 439 303.5 C 440.34626 305.51499 440.17833 301.55331 439 303.5 z " fill-rule="nonzero"></path><path transform="matrix(0.334579,0,0,0.334579,-16.309539,-16.539673)" stroke="#00c715" fill="none" d="M 439 518.5 C 440.34626 520.51499 440.17833 516.55331 439 518.5 z " fill-rule="nonzero"></path><path transform="matrix(0.334579,0,0,0.334579,-16.309539,-16.539673)" stroke="#00c715" fill="none" d="M 457 279.5 C 458.34626 281.51499 458.17833 277.55331 457 279.5 z " fill-rule="nonzero"></path><path transform="matrix(0.334579,0,0,0.334579,-16.309539,-16.539673)" stroke="#00c715" fill="none" d="M 457 544.5 C 458.34626 546.51499 458.17833 542.55331 457 544.5 z " fill-rule="nonzero"></path><path transform="matrix(0.334579,0,0,0.334579,-16.309539,-16.539673)" stroke="#00c715" fill="none" d="M 460 671.5 C 461.34626 673.51499 461.17833 669.55331 460 671.5 z " fill-rule="nonzero"></path><path transform="matrix(0.334579,0,0,0.334579,-16.309539,-16.539673)" stroke="#00c715" fill="none" d="M 470 336.5 C 471.34626 338.51499 471.17833 334.55331 470 336.5 z " fill-rule="nonzero"></path><path transform="matrix(0.334579,0,0,0.334579,-16.309539,-16.539673)" stroke="#00c715" fill="none" d="M 473 333.5 C 474.34626 335.51499 474.17833 331.55331 473 333.5 z " fill-rule="nonzero"></path><path transform="matrix(0.334579,0,0,0.334579,-16.309539,-16.539673)" stroke="#00c715" fill="none" d="M 474 446.5 C 475.34626 448.51499 475.17833 444.55331 474 446.5 z " fill-rule="nonzero"></path><path transform="matrix(0.334579,0,0,0.334579,-16.309539,-16.539673)" stroke="#00c715" fill="none" d="M 478 524.5 C 479.34626 526.51499 479.17833 522.55331 478 524.5 z " fill-rule="nonzero"></path><path transform="matrix(0.334579,0,0,0.334579,-16.309539,-16.539673)" stroke="#00c715" fill="none" d="M 479 543.5 C 480.34626 545.51499 480.17833 541.55331 479 543.5 z " fill-rule="nonzero"></path><path transform="matrix(0.334579,0,0,0.334579,-16.309539,-16.539673)" stroke="#00c715" fill="none" d="M 486 285.5 C 487.34626 287.51499 487.17833 283.55331 486 285.5 z " fill-rule="nonzero"></path><path transform="matrix(0.334579,0,0,0.334579,-16.309539,-16.539673)" stroke="#00c715" fill="none" d="M 488 378.5 C 489.34626 380.51499 489.17833 376.55331 488 378.5 z " fill-rule="nonzero"></path><path transform="matrix(0.334579,0,0,0.334579,-16.309539,-16.539673)" stroke="#00c715" fill="none" d="M 491 491.5 C 492.34626 493.51499 492.17833 489.55331 491 491.5 z " fill-rule="nonzero"></path><path transform="matrix(0.334579,0,0,0.334579,-16.309539,-16.539673)" stroke="#00c715" fill="none" d="M 496 557.5 C 497.34626 559.51499 497.17833 555.55331 496 557.5 z " fill-rule="nonzero"></path><path transform="matrix(0.334579,0,0,0.334579,-16.309539,-16.539673)" stroke="#00c715" fill="none" d="M 502 545.5 C 503.34626 547.51499 503.17833 543.55331 502 545.5 z " fill-rule="nonzero"></path><path transform="matrix(0.334579,0,0,0.334579,-16.309539,-16.539673)" stroke="#00c715" fill="none" d="M 503 469.5 C 504.34626 471.51499 504.17833 467.55331 503 469.5 z " fill-rule="nonzero"></path><path transform="matrix(0.334579,0,0,0.334579,-16.309539,-16.539673)" stroke="#00c715" fill="none" d="M 518 335.5 C 519.34626 337.51499 519.17833 333.55331 518 335.5 z " fill-rule="nonzero"></path><path transform="matrix(0.334579,0,0,0.334579,-16.309539,-16.539673)" stroke="#00c715" fill="none" d="M 526 335.5 C 527.34626 337.51499 527.17833 333.55331 526 335.5 z " fill-rule="nonzero"></path><path transform="matrix(0.334579,0,0,0.334579,-16.309539,-16.539673)" stroke="#00c715" fill="none" d="M 530 301.5 C 531.34626 303.51499 531.17833 299.55331 530 301.5 z " fill-rule="nonzero"></path><path transform="matrix(0.334579,0,0,0.334579,-16.309539,-16.539673)" stroke="#00c715" fill="none" d="M 531 319.5 C 532.34626 321.51499 532.17833 317.55331 531 319.5 z " fill-rule="nonzero"></path><path transform="matrix(0.334579,0,0,0.334579,-16.309539,-16.539673)" stroke="#00c715" fill="none" d="M 531 708.5 C 532.34626 710.51499 532.17833 706.55331 531 708.5 z " fill-rule="nonzero"></path><path transform="matrix(0.334579,0,0,0.334579,-16.309539,-16.539673)" stroke="#00c715" fill="none" d="M 532 464.5 C 533.34626 466.51499 533.17833 462.55331 532 464.5 z " fill-rule="nonzero"></path><path transform="matrix(0.334579,0,0,0.334579,-16.309539,-16.539673)" stroke="#00c715" fill="none" d="M 545 254.5 C 546.34626 256.51499 546.17833 252.55331 545 254.5 z " fill-rule="nonzero"></path><path transform="matrix(0.334579,0,0,0.334579,-16.309539,-16.539673)" stroke="#00c715" fill="none" d="M 545 289.5 C 546.34626 291.51499 546.17833 287.55331 545 289.5 z " fill-rule="nonzero"></path><path transform="matrix(0.334579,0,0,0.334579,-16.309539,-16.539673)" stroke="#00c715" fill="none" d="M 552.813 816.683 C 557.11565 817.47536 552.70098 814.93257 552.813 816.683 z " fill-rule="nonzero"></path><path transform="matrix(0.334579,0,0,0.334579,-16.309539,-16.539673)" stroke="#00c715" fill="none" d="M 556 399.5 C 557.34626 401.51499 557.17833 397.55331 556 399.5 z " fill-rule="nonzero"></path><path transform="matrix(0.334579,0,0,0.334579,-16.309539,-16.539673)" stroke="#00c715" fill="none" d="M 557 801.5 C 558.34626 803.51499 558.17833 799.55331 557 801.5 z " fill-rule="nonzero"></path><path transform="matrix(0.334579,0,0,0.334579,-16.309539,-16.539673)" stroke="#00c715" fill="none" d="M 558 334.5 C 559.34626 336.51499 559.17833 332.55331 558 334.5 z " fill-rule="nonzero"></path><path transform="matrix(0.334579,0,0,0.334579,-16.309539,-16.539673)" stroke="#00c715" fill="none" d="M 559 494.5 C 560.34626 496.51499 560.17833 492.55331 559 494.5 z " fill-rule="nonzero"></path><path transform="matrix(0.334579,0,0,0.334579,-16.309539,-16.539673)" stroke="#00c715" fill="none" d="M 560 416.5 C 561.34626 418.51499 561.17833 414.55331 560 416.5 z " fill-rule="nonzero"></path><path transform="matrix(0.334579,0,0,0.334579,-16.309539,-16.539673)" stroke="#00c715" fill="none" d="M 564 816.5 C 565.34626 818.51499 565.17833 814.55331 564 816.5 z " fill-rule="nonzero"></path><path transform="matrix(0.334579,0,0,0.334579,-16.309539,-16.539673)" stroke="#00c715" fill="none" d="M 566 393.5 C 567.34626 395.51499 567.17833 391.55331 566 393.5 z " fill-rule="nonzero"></path><path transform="matrix(0.334579,0,0,0.334579,-16.309539,-16.539673)" stroke="#00c715" fill="none" d="M 570 377.5 C 571.34626 379.51499 571.17833 375.55331 570 377.5 z " fill-rule="nonzero"></path><path transform="matrix(0.334579,0,0,0.334579,-16.309539,-16.539673)" stroke="#00c715" fill="none" d="M 570 788.5 C 571.34626 790.51499 571.17833 786.55331 570 788.5 z " fill-rule="nonzero"></path><path transform="matrix(0.334579,0,0,0.334579,-16.309539,-16.539673)" stroke="#00c715" fill="none" d="M 572 810.5 C 573.34626 812.51499 573.17833 808.55331 572 810.5 z " fill-rule="nonzero"></path><path transform="matrix(0.334579,0,0,0.334579,-16.309539,-16.539673)" stroke="#00c715" fill="none" d="M 573 831.5 C 574.34626 833.51499 574.17833 829.55331 573 831.5 z " fill-rule="nonzero"></path><path transform="matrix(0.334579,0,0,0.334579,-16.309539,-16.539673)" stroke="#00c715" fill="none" d="M 576.813 831.683 C 581.11565 832.47536 576.70098 829.93257 576.813 831.683 z " fill-rule="nonzero"></path><path transform="matrix(0.334579,0,0,0.334579,-16.309539,-16.539673)" stroke="#00c715" fill="none" d="M 580 416.5 C 581.34626 418.51499 581.17833 414.55331 580 416.5 z " fill-rule="nonzero"></path><path transform="matrix(0.334579,0,0,0.334579,-16.309539,-16.539673)" stroke="#00c715" fill="none" d="M 581 806.5 C 582.34626 808.51499 582.17833 804.55331 581 806.5 z " fill-rule="nonzero"></path><path transform="matrix(0.334579,0,0,0.334579,-16.309539,-16.539673)" stroke="#00c715" fill="none" d="M 583 559.5 C 584.34626 561.51499 584.17833 557.55331 583 559.5 z " fill-rule="nonzero"></path><path transform="matrix(0.334579,0,0,0.334579,-16.309539,-16.539673)" stroke="#00c715" fill="none" d="M 585 801.5 C 586.34626 803.51499 586.17833 799.55331 585 801.5 z " fill-rule="nonzero"></path><path transform="matrix(0.334579,0,0,0.334579,-16.309539,-16.539673)" stroke="#00c715" fill="none" d="M 586 670.5 C 587.34626 672.51499 587.17833 668.55331 586 670.5 z " fill-rule="nonzero"></path><path transform="matrix(0.334579,0,0,0.334579,-16.309539,-16.539673)" stroke="#00c715" fill="none" d="M 588 557.5 C 589.34626 559.51499 589.17833 555.55331 588 557.5 z " fill-rule="nonzero"></path><path transform="matrix(0.334579,0,0,0.334579,-16.309539,-16.539673)" stroke="#00c715" fill="none" d="M 592 303.5 C 593.34626 305.51499 593.17833 301.55331 592 303.5 z " fill-rule="nonzero"></path><path transform="matrix(0.334579,0,0,0.334579,-16.309539,-16.539673)" stroke="#00c715" fill="none" d="M 593 254.5 C 594.34626 256.51499 594.17833 252.55331 593 254.5 z " fill-rule="nonzero"></path><path transform="matrix(0.334579,0,0,0.334579,-16.309539,-16.539673)" stroke="#00c715" fill="none" d="M 599 297.5 C 600.34626 299.51499 600.17833 295.55331 599 297.5 z " fill-rule="nonzero"></path><path transform="matrix(0.334579,0,0,0.334579,-16.309539,-16.539673)" stroke="#00c715" fill="none" d="M 599 533.5 C 600.34626 535.51499 600.17833 531.55331 599 533.5 z " fill-rule="nonzero"></path><path transform="matrix(0.334579,0,0,0.334579,-16.309539,-16.539673)" stroke="#00c715" fill="none" d="M 601 519.5 C 602.34626 521.51499 602.17833 517.55331 601 519.5 z " fill-rule="nonzero"></path><path transform="matrix(0.334579,0,0,0.334579,-16.309539,-16.539673)" stroke="#00c715" fill="none" d="M 608 449.5 C 609.34626 451.51499 609.17833 447.55331 608 449.5 z " fill-rule="nonzero"></path><path transform="matrix(0.334579,0,0,0.334579,-16.309539,-16.539673)" stroke="#00c715" fill="none" d="M 611 263.5 C 612.34626 265.51499 612.17833 261.55331 611 263.5 z " fill-rule="nonzero"></path><path transform="matrix(0.334579,0,0,0.334579,-16.309539,-16.539673)" stroke="#00c715" fill="none" d="M 611 607.5 C 612.34626 609.51499 612.17833 605.55331 611 607.5 z " fill-rule="nonzero"></path><path transform="matrix(0.334579,0,0,0.334579,-16.309539,-16.539673)" stroke="#00c715" fill="none" d="M 611 806.5 C 612.34626 808.51499 612.17833 804.55331 611 806.5 z " fill-rule="nonzero"></path><path transform="matrix(0.334579,0,0,0.334579,-16.309539,-16.539673)" stroke="#00c715" fill="none" d="M 617 566.5 C 618.34626 568.51499 618.17833 564.55331 617 566.5 z " fill-rule="nonzero"></path><path transform="matrix(0.334579,0,0,0.334579,-16.309539,-16.539673)" stroke="#00c715" fill="none" d="M 619 392.5 C 620.34626 394.51499 620.17833 390.55331 619 392.5 z " fill-rule="nonzero"></path><path transform="matrix(0.334579,0,0,0.334579,-16.309539,-16.539673)" stroke="#00c715" fill="none" d="M 620 737.5 C 621.34626 739.51499 621.17833 735.55331 620 737.5 z " fill-rule="nonzero"></path><path transform="matrix(0.334579,0,0,0.334579,-16.309539,-16.539673)" stroke="#00c715" fill="none" d="M 621 571.5 C 622.34626 573.51499 622.17833 569.55331 621 571.5 z " fill-rule="nonzero"></path><path transform="matrix(0.334579,0,0,0.334579,-16.309539,-16.539673)" stroke="#00c715" fill="none" d="M 627 761.5 C 628.34626 763.51499 628.17833 759.55331 627 761.5 z " fill-rule="nonzero"></path><path transform="matrix(0.334579,0,0,0.334579,-16.309539,-16.539673)" stroke="#00c715" fill="none" d="M 633 759.5 C 634.34626 761.51499 634.17833 757.55331 633 759.5 z " fill-rule="nonzero"></path><path transform="matrix(0.334579,0,0,0.334579,-16.309539,-16.539673)" stroke="#00c715" fill="none" d="M 640 748.5 C 641.34626 750.51499 641.17833 746.55331 640 748.5 z " fill-rule="nonzero"></path><path transform="matrix(0.334579,0,0,0.334579,-16.309539,-16.539673)" stroke="#00c715" fill="none" d="M 641 746.5 C 642.34626 748.51499 642.17833 744.55331 641 746.5 z " fill-rule="nonzero"></path><path transform="matrix(0.334579,0,0,0.334579,-16.309539,-16.539673)" stroke="#00c715" fill="none" d="M 642 735.5 C 643.34626 737.51499 643.17833 733.55331 642 735.5 z " fill-rule="nonzero"></path><path transform="matrix(0.334579,0,0,0.334579,-16.309539,-16.539673)" stroke="#00c715" fill="none" d="M 645 308.5 C 646.34626 310.51499 646.17833 306.55331 645 308.5 z " fill-rule="nonzero"></path><path transform="matrix(0.334579,0,0,0.334579,-16.309539,-16.539673)" stroke="#00c715" fill="none" d="M 653 632.5 C 654.34626 634.51499 654.17833 630.55331 653 632.5 z " fill-rule="nonzero"></path><path transform="matrix(0.334579,0,0,0.334579,-16.309539,-16.539673)" stroke="#00c715" fill="none" d="M 654 523.5 C 655.34626 525.51499 655.17833 521.55331 654 523.5 z " fill-rule="nonzero"></path><path transform="matrix(0.334579,0,0,0.334579,-16.309539,-16.539673)" stroke="#00c715" fill="none" d="M 656 439.5 C 657.34626 441.51499 657.17833 437.55331 656 439.5 z " fill-rule="nonzero"></path><path transform="matrix(0.334579,0,0,0.334579,-16.309539,-16.539673)" stroke="#00c715" fill="none" d="M 675 330.5 C 676.34626 332.51499 676.17833 328.55331 675 330.5 z " fill-rule="nonzero"></path><path transform="matrix(0.334579,0,0,0.334579,-16.309539,-16.539673)" stroke="#00c715" fill="none" d="M 675 452.5 C 676.34626 454.51499 676.17833 450.55331 675 452.5 z " fill-rule="nonzero"></path><path transform="matrix(0.334579,0,0,0.334579,-16.309539,-16.539673)" stroke="#00c715" fill="none" d="M 685 382.5 C 686.34626 384.51499 686.17833 380.55331 685 382.5 z " fill-rule="nonzero"></path><path transform="matrix(0.334579,0,0,0.334579,-16.309539,-16.539673)" stroke="#00c715" fill="none" d="M 691 196.5 C 692.34626 198.51499 692.17833 194.55331 691 196.5 z " fill-rule="nonzero"></path><path transform="matrix(0.334579,0,0,0.334579,-16.309539,-16.539673)" stroke="#00c715" fill="none" d="M 692 692.5 C 693.34626 694.51499 693.17833 690.55331 692 692.5 z " fill-rule="nonzero"></path><path transform="matrix(0.334579,0,0,0.334579,-16.309539,-16.539673)" stroke="#00c715" fill="none" d="M 701 511.5 C 702.34626 513.51499 702.17833 509.55331 701 511.5 z " fill-rule="nonzero"></path><path transform="matrix(0.334579,0,0,0.334579,-16.309539,-16.539673)" stroke="#00c715" fill="none" d="M 720 533.5 C 721.34626 535.51499 721.17833 531.55331 720 533.5 z " fill-rule="nonzero"></path><path transform="matrix(0.334579,0,0,0.334579,-16.309539,-16.539673)" stroke="#00c715" fill="none" d="M 723 568.5 C 724.34626 570.51499 724.17833 566.55331 723 568.5 z " fill-rule="nonzero"></path><path transform="matrix(0.334579,0,0,0.334579,-16.309539,-16.539673)" stroke="#00c715" fill="none" d="M 729 615.5 C 730.34626 617.51499 730.17833 613.55331 729 615.5 z " fill-rule="nonzero"></path><path transform="matrix(0.334579,0,0,0.334579,-16.309539,-16.539673)" stroke="#00c715" fill="none" d="M 731 449.5 C 732.34626 451.51499 732.17833 447.55331 731 449.5 z " fill-rule="nonzero"></path><path transform="matrix(0.334579,0,0,0.334579,-16.309539,-16.539673)" stroke="#00c715" fill="none" d="M 732 548.5 C 733.34626 550.51499 733.17833 546.55331 732 548.5 z " fill-rule="nonzero"></path><path transform="matrix(0.334579,0,0,0.334579,-16.309539,-16.539673)" stroke="#00c715" fill="none" d="M 738 619.5 C 739.34626 621.51499 739.17833 617.55331 738 619.5 z " fill-rule="nonzero"></path><path transform="matrix(0.334579,0,0,0.334579,-16.309539,-16.539673)" stroke="#00c715" fill="none" d="M 759 610.5 C 760.34626 612.51499 760.17833 608.55331 759 610.5 z " fill-rule="nonzero"></path><path transform="matrix(0.334579,0,0,0.334579,-16.309539,-16.539673)" stroke="#00c715" fill="none" d="M 763 504.5 C 764.34626 506.51499 764.17833 502.55331 763 504.5 z " fill-rule="nonzero"></path><path transform="matrix(0.334579,0,0,0.334579,-16.309539,-16.539673)" stroke="#00c715" fill="none" d="M 764 506.5 C 765.34626 508.51499 765.17833 504.55331 764 506.5 z " fill-rule="nonzero"></path><path transform="matrix(0.334579,0,0,0.334579,-16.309539,-16.539673)" stroke="#00c715" fill="none" d="M 772 623.5 C 773.34626 625.51499 773.17833 621.55331 772 623.5 z " fill-rule="nonzero"></path></svg>